<svg width="154" height="90" viewBox="0 0 154 90" fill="none" xmlns="http://www.w3.org/2000/svg">
<path d="M45 2C68.7484 2 88 21.2517 88 45M23.5 7.75265C10.6472 15.1876 2 29.0839 2 45C2 68.7484 21.2517 88 45 88C60.9159 88 74.8124 79.3527 82.2471 66.5" stroke="#10B8CF" stroke-width="3" stroke-linecap="round"/>
<path d="M87.464 18.664C88.4027 18.664 89.0853 18.7707 89.512 18.984C89.9813 19.1547 90.344 19.4747 90.6 19.944C91.0267 20.84 91.56 21.992 92.2 23.4L94.568 28.52L97.576 35.112C98.1307 36.3067 98.856 37.8853 99.752 39.848C100.648 41.8107 101.288 43.176 101.672 43.944C102.397 45.4373 102.867 46.3547 103.08 46.696L104.872 50.216L106.856 54.12L106.728 50.408L106.472 44.136V42.216C106.472 39.8693 106.515 37.5013 106.6 35.112C106.6 33.32 106.579 31.8693 106.536 30.76L106.472 25.896L106.728 19.752C106.728 19.112 107.048 18.792 107.688 18.792C107.901 18.792 108.328 18.856 108.968 18.984C109.352 19.0693 109.757 19.112 110.184 19.112C110.611 19.112 110.952 19.112 111.208 19.112C111.549 19.112 111.763 19.1547 111.848 19.24C111.976 19.3253 112.04 19.4747 112.04 19.688C112.04 19.8587 112.019 20.0507 111.976 20.264C111.933 20.4773 111.912 20.712 111.912 20.968L111.848 26.472L111.72 39.4L111.656 41.256C111.656 42.7067 111.677 44.0293 111.72 45.224C111.763 46.4187 111.805 47.4 111.848 48.168C111.976 50.0027 112.04 51.5387 112.04 52.776C112.04 52.6053 112.104 55.144 112.232 60.392L112.36 63.976V64.104C112.36 64.9573 111.955 65.3413 111.144 65.256C111.016 65.2133 110.76 65.192 110.376 65.192L108.52 65.256H108.136C107.837 65.256 107.603 65.192 107.432 65.064C107.304 64.936 107.069 64.5733 106.728 63.976C106.6 63.6773 106.429 63.2507 106.216 62.696C106.003 62.1413 105.747 61.5227 105.448 60.84C103.613 56.232 102.291 53.096 101.48 51.432C100.541 49.64 98.1733 44.4987 94.376 36.008C93.5227 34.2587 92.5627 32.4027 91.496 30.44L89.64 27.112L89.832 33.192L89.896 36.968C89.9813 39.784 90.024 41.64 90.024 42.536C90.024 46.0347 90.088 49.5547 90.216 53.096L90.28 58.088C90.28 58.984 90.3227 60.2853 90.408 61.992L90.536 64.232V64.36C90.536 64.7867 90.4293 65.064 90.216 65.192C90.0027 65.32 89.704 65.384 89.32 65.384L87.912 65.448C87.016 65.576 86.056 65.64 85.032 65.64C83.8373 65.64 82.856 65.6613 82.088 65.704L78.824 65.768C78.184 65.768 77.7573 65.64 77.544 65.384C77.3307 65.1707 77.2027 64.9147 77.16 64.616C77.1173 64.3173 77.0747 64.104 77.032 63.976C76.8613 63.208 76.776 62.2693 76.776 61.16C76.776 60.136 76.7973 59.2613 76.84 58.536C76.84 56.3173 76.8827 53.736 76.968 50.792C77.0533 47.8053 77.16 45.672 77.288 44.392L77.608 39.848C78.12 32.7653 78.376 28.776 78.376 27.88C78.376 24.5093 78.44 21.992 78.568 20.328C78.6533 19.176 79.2507 18.6 80.36 18.6C80.7013 18.6 81.0213 18.6213 81.32 18.664C81.6187 18.7067 81.8533 18.728 82.024 18.728L87.464 18.664ZM150.426 18.984C150.938 19.0267 151.237 19.1547 151.322 19.368C151.45 19.5813 151.493 19.88 151.45 20.264C151.45 20.6053 151.45 20.8613 151.45 21.032C151.493 21.5867 151.386 21.9707 151.13 22.184C150.874 22.3973 150.469 22.504 149.914 22.504C149.573 22.504 148.911 22.5253 147.93 22.568C146.991 22.6107 145.839 22.6107 144.474 22.568H144.218L144.09 34.152L144.026 45.416C144.026 47.1227 144.111 49.2987 144.282 51.944C144.495 54.5467 144.623 56.1893 144.666 56.872C144.922 60.2853 145.05 62.2053 145.05 62.632C145.093 63.4853 144.901 64.04 144.474 64.296C144.047 64.552 143.301 64.68 142.234 64.68L139.418 64.616C139.205 64.616 135.706 64.552 128.922 64.424L124.954 64.36C124.527 64.36 124.314 63.9333 124.314 63.08C124.314 62.7813 124.357 62.2053 124.442 61.352C124.527 60.2427 124.57 59.3893 124.57 58.792C124.485 57.6827 124.442 55.7413 124.442 52.968C124.442 49.256 124.485 45.288 124.57 41.064C124.698 36.84 124.847 33.6613 125.018 31.528C125.103 30.4187 125.146 28.9253 125.146 27.048C125.146 24.9573 125.082 23.3787 124.954 22.312L123.802 22.248L118.49 22.376C118.149 22.376 117.978 22.0347 117.978 21.352L118.042 19.944C118.042 19.6027 118.085 19.3893 118.17 19.304C118.298 19.176 118.49 19.112 118.746 19.112C118.917 19.112 119.13 19.1333 119.386 19.176C119.642 19.2187 119.941 19.24 120.282 19.24L133.914 19.176L145.05 19.048C146.799 19.0053 148.591 18.984 150.426 18.984Z" fill="#10B8CF"/>
<path d="M45 45V51M45 45L50.7737 42.1131M45 45L39.2263 42.1131M65 35L59.2263 37.8869M65 35V41M65 35L59.2263 32.1131M30.7737 52.1131L25 55M25 55L30.7737 57.8869M25 55V49M25 35L30.7737 37.8869M25 35L30.7737 32.1131M25 35V41M59.2263 52.1131L65 55M65 55L59.2263 57.8869M65 55V49M45 25V31M45 25L39.2261 27.8869M45 25L50.774 27.8869M45 59V65M45 65L50.7737 62.1131M45 65L39.2263 62.1131" stroke="#10B8CF" stroke-width="3" stroke-linecap="round"/>
</svg>
